<svg viewBox="0 0 24 24" xmlns="http://www.w3.org/2000/svg"><circle cx="12" cy="6" r="1"/><path d="m6 17h12v2h-12z"/><path d="m10 11.83 2.792 2.794 3.932-3.935 1.276 1.311v-4h-4l1.31 1.275-2.519 2.519-2.791-2.794-4 4 1.414 1.414z"/><path d="m19 3h-3.29785l-.00049-.00067a4.49706 4.49706 0 0 0 -.319-.42444l-.01066-.01166a4.42613 4.42613 0 0 0 -2.89-1.51776 2.577 2.577 0 0 0 -.96392 0 4.42613 4.42613 0 0 0 -2.89 1.51776l-.01074.01166a4.49706 4.49706 0 0 0 -.319.42444l-.00049.00067h-3.29785a3.00328 3.00328 0 0 0 -3 3v14a3.00328 3.00328 0 0 0 3 3h14a3.00328 3.00328 0 0 0 3-3v-14a3.00328 3.00328 0 0 0 -3-3zm1 17a1.00067 1.00067 0 0 1 -1 1h-14a1.001 1.001 0 0 1 -1-1v-14a1.0013 1.0013 0 0 1 1-1h4.55042a2.50011 2.50011 0 0 1 4.89916 0h4.55042a1.001 1.001 0 0 1 1 1z"/></svg>